<svg id="svg2" xmlns="http://www.w3.org/2000/svg" viewBox="0 0 115 115"><defs><style>.cls-1{fill:#231f20;}.cls-2{fill:#fff;}</style></defs><title>accuracy2</title><path class="cls-1" d="M60,10a50,50,0,1,0,50,50A50,50,0,0,0,60,10Zm0,90a40,40,0,1,1,40-40A40,40,0,0,1,60,100Z" transform="translate(-2.5 -2.5)"/><rect class="cls-1" y="52.5" width="115" height="10"/><rect class="cls-1" x="2.5" y="55" width="115" height="10" transform="translate(-2.5 117.5) rotate(-90)"/><rect class="cls-2" x="47.5" y="47.5" width="20" height="20"/><path class="cls-1" d="M60,27.5A32.5,32.5,0,1,0,92.5,60,32.5,32.5,0,0,0,60,27.5ZM60,85A25,25,0,1,1,85,60,25,25,0,0,1,60,85Z" transform="translate(-2.5 -2.5)"/></svg>