<?xml version="1.0" encoding="utf-8"?>
<!-- Generator: Adobe Illustrator 19.2.1, SVG Export Plug-In . SVG Version: 6.00 Build 0)  -->
<svg version="1.1"
	 id="svg2" xmlns:cc="http://creativecommons.org/ns#" xmlns:dc="http://purl.org/dc/elements/1.1/" xmlns:rdf="http://www.w3.org/1999/02/22-rdf-syntax-ns#" xmlns:svg="http://www.w3.org/2000/svg"
	 xmlns="http://www.w3.org/2000/svg" xmlns:xlink="http://www.w3.org/1999/xlink" x="0px" y="0px" viewBox="0 0 120 120"
	 style="enable-background:new 0 0 120 120;" xml:space="preserve">
<style type="text/css">
	.st0{fill:#231F20;}
	.st1{fill:#FFFFFF;}
</style>
<g>
	<g>
		<path class="st0" d="M60,10c-27.6,0-50,22.4-50,50c0,27.6,22.4,50,50,50s50-22.4,50-50C110,32.4,87.6,10,60,10z M60,102.5
			c-23.5,0-42.5-19-42.5-42.5c0-23.5,19-42.5,42.5-42.5s42.5,19,42.5,42.5C102.5,83.5,83.5,102.5,60,102.5z"/>
	</g>
</g>
<rect x="2.5" y="56" class="st0" width="115" height="8"/>
<rect x="2.5" y="56" transform="matrix(6.123234e-17 -1 1 6.123234e-17 -7.105427e-15 120)" class="st0" width="115" height="8"/>
<rect x="45" y="45" class="st1" width="30" height="30"/>
<g>
	<g>
		<path class="st0" d="M60,25c-19.3,0-35,15.7-35,35s15.7,35,35,35s35-15.7,35-35S79.3,25,60,25z M60,90c-16.6,0-30-13.4-30-30
			c0-16.6,13.4-30,30-30s30,13.4,30,30C90,76.6,76.6,90,60,90z"/>
	</g>
</g>
</svg>
