<?xml version="1.0" encoding="UTF-8" standalone="no"?>
<svg
   xmlns:dc="http://purl.org/dc/elements/1.1/"
   xmlns:cc="http://creativecommons.org/ns#"
   xmlns:rdf="http://www.w3.org/1999/02/22-rdf-syntax-ns#"
   xmlns:svg="http://www.w3.org/2000/svg"
   xmlns="http://www.w3.org/2000/svg"
   viewBox="0 0 128.64 125.44"
   height="125.44"
   width="128.64"
   xml:space="preserve"
   id="svg2"
   version="1.1"><metadata
     id="metadata8"><rdf:RDF><cc:Work
         rdf:about=""><dc:format>image/svg+xml</dc:format><dc:type
           rdf:resource="http://purl.org/dc/dcmitype/StillImage" /></cc:Work></rdf:RDF></metadata><defs
     id="defs6"><clipPath
       id="clipPath20"
       clipPathUnits="userSpaceOnUse"><path
         id="path18"
         d="M 0,940.801 V 0 h 964.805 v 940.801 z" /></clipPath></defs><g
     transform="matrix(1.3333333,0,0,-1.3333333,0,125.44)"
     id="g10"><g
       transform="scale(0.1)"
       id="g12"><g
         id="g14"><g
           clip-path="url(#clipPath20)"
           id="g16"><path
             id="path22"
             style="fill:#231f20;fill-opacity:1;fill-rule:evenodd;stroke:none"
             d="M 256.801,638.398 C 289.48,588.699 334.426,530.527 328.805,460.801 318.809,336.785 203.844,253.84 163.203,158.398 c 95.375,48.02 176.246,154.407 302.399,163.204 10.691,0.742 22.336,0.988 33.597,0 130.391,-11.368 207.617,-122.176 304.805,-160.801 -31.66,40.5 -61.211,88.84 -93.606,136.797 -31.777,47.07 -68.718,95.031 -74.39,156.007 -7.738,82.95 40.762,144.657 74.39,194.399 31.926,47.199 65.414,90.101 93.606,136.797 C 756.387,754.766 711.348,722.324 662.402,691.199 609.922,657.832 545.586,614.926 463.203,621.602 335.16,631.973 254.492,743.812 156,782.402 189.734,742.852 221.895,691.484 256.801,638.398 Z M 31.2031,940.801 c 0.8008,0 1.5977,0 2.3985,0 C 111.414,891.41 187.973,840.773 264.004,789.602 c 57.641,37.914 145.062,70.058 240,64.796 78.058,-4.32 144.082,-32.546 192.004,-64.796 78.301,49.695 154.722,101.273 232.793,151.199 1.597,0 3.203,0 4.804,0 9.688,-11.91 20.282,-22.91 31.2,-33.598 0,-0.801 0,-1.601 0,-2.402 C 914.16,829.043 863.652,753.156 808.801,681.602 c 80.984,-96.297 84.187,-324.598 0,-420 51.328,-75.079 105.75,-147.051 156.004,-223.2036 0,-0.8007 0,-1.6015 0,-2.3906 C 953.855,24.5508 946.301,9.69531 933.605,0 932.004,0 930.398,0 928.801,0 853.547,51.9453 773.398,98.9922 698.398,151.199 600.469,73.9922 363.754,71.6523 266.402,151.199 188.453,101.152 110.93,50.6758 33.6016,0 32.8008,0 32.0039,0 31.2031,0 19.2188,11.2227 5.16016,20.3633 0,38.3984 48.2227,113.379 100.543,184.258 148.805,259.199 122.828,306.016 91.4336,366.523 86.4023,436.797 79.2734,536.324 111.645,620.402 148.805,681.602 99.4766,757.074 46.4609,828.859 0,907.203 c 7.57031,14.031 20.2227,22.973 31.2031,33.598" /></g></g></g></g></svg>