<?xml version="1.0" encoding="utf-8"?>
<!-- Generator: Adobe Illustrator 20.1.0, SVG Export Plug-In . SVG Version: 6.00 Build 0)  -->
<svg version="1.1" id="Layer_1" xmlns="http://www.w3.org/2000/svg" xmlns:xlink="http://www.w3.org/1999/xlink" x="0px" y="0px"
	 width="400px" height="112px" viewBox="0 0 400 112" style="enable-background:new 0 0 400 112;" xml:space="preserve">
<style type="text/css">
	.st0{fill:#231F20;}
	.st1{fill:none;}
</style>
<g id="evade">
	<path id="path24" class="st0" d="M67.9,112c-2.9,0-5.8,0-8.6,0c-10.5-1.2-19.2-4-26.2-8.6c5.5-5,10-10.9,16.3-15
		c31.3,13.5,61.8-18,47.7-46.7c5.1-5.4,10.3-10.6,16-15.4c5.9,9.3,9.6,21.5,8.6,34.9C119.6,90,94.9,109.4,67.9,112"/>
	<g id="g16">
		<path id="path22" class="st0" d="M59.3,0c2.9,0,5.8,0,8.6,0c10.4,1.1,18.8,4,26.2,8c-3.6,5.4-10.1,10.6-15,15.7
			C77,23,75,21.9,73.4,21.4C43.8,13.9,18,42.8,30.2,70.1C26.6,75,19.9,81.7,14.8,85.4c-4.6-7.5-8.1-16-9-27.2c0-1.3,0-2.6,0-3.8
			C9.5,22.1,27.9,4.5,59.3,0"/>
	</g>
</g>
<g id="block">
	<path id="path22_1_" class="st0" d="M260.7,0.3c17.8,7.2,41.4,13.5,67.1,13.5c25.8,0,48.9-6.1,67.1-13.8
		c-34.1,25.5-60.1,59.1-66.8,112C320,60.3,295.4,25.3,260.7,0.3"/>
</g>
<g>
	<rect x="172.5" y="22.6" class="st1" width="55" height="66.9"/>
	<g>
		<polygon points="172.5,89.4 202.3,56 172.5,22.6 197.7,22.6 227.5,56 197.7,89.4 		"/>
	</g>
</g>
</svg>
