<?xml version="1.0" encoding="utf-8"?>
<!-- Generator: Adobe Illustrator 20.1.0, SVG Export Plug-In . SVG Version: 6.00 Build 0)  -->
<svg version="1.1"
	 id="svg2" xmlns:cc="http://creativecommons.org/ns#" xmlns:dc="http://purl.org/dc/elements/1.1/" xmlns:rdf="http://www.w3.org/1999/02/22-rdf-syntax-ns#" xmlns:svg="http://www.w3.org/2000/svg"
	 xmlns="http://www.w3.org/2000/svg" xmlns:xlink="http://www.w3.org/1999/xlink" x="0px" y="0px" width="400px" height="140px"
	 viewBox="0 0 400 140" style="enable-background:new 0 0 400 140;" xml:space="preserve">
<style type="text/css">
	.st0{fill:#231F20;}
	.st1{font-family:'MyriadPro-Bold';}
	.st2{font-size:120px;}
</style>
<g id="equals">
	<rect x="159" y="65.2" class="st0" width="90" height="20"/>
	<rect x="159" y="100.8" class="st0" width="90" height="20"/>
</g>
<g id="evade">
	<path id="path24" class="st0" d="M69.9,126c-2.9,0-5.8,0-8.6,0c-10.5-1.2-19.2-4-26.2-8.6c5.5-5,10-10.9,16.3-15
		c31.3,13.5,61.8-18,47.7-46.7c5.1-5.4,10.3-10.6,16-15.4c5.9,9.3,9.6,21.5,8.6,34.9C121.6,104,96.9,123.4,69.9,126"/>
	<g id="g16">
		<path id="path22" class="st0" d="M61.3,14c2.9,0,5.8,0,8.6,0c10.4,1.1,18.8,4,26.2,8c-3.6,5.4-10.1,10.6-15,15.7
			C79,37,77,35.9,75.4,35.4C45.8,27.9,20,56.8,32.2,84.1C28.6,89,21.9,95.7,16.8,99.4c-4.6-7.5-8.1-16-9-27.2c0-1.3,0-2.6,0-3.8
			C11.5,36.1,29.9,18.5,61.3,14"/>
	</g>
</g>
<g id="block">
	<path id="path22_1_" class="st0" d="M262.7,14.3c17.8,7.2,41.4,13.5,67.1,13.5c25.8,0,48.9-6.1,67.1-13.8
		c-34.1,25.5-60.1,59.1-66.8,112C322,74.3,297.4,39.3,262.7,14.3"/>
</g>
<text transform="matrix(1 0 0 1 159 61.9936)" class="st1 st2">∞</text>
</svg>
