<?xml version="1.0" encoding="UTF-8" standalone="no"?>
<svg
   xmlns:dc="http://purl.org/dc/elements/1.1/"
   xmlns:cc="http://creativecommons.org/ns#"
   xmlns:rdf="http://www.w3.org/1999/02/22-rdf-syntax-ns#"
   xmlns:svg="http://www.w3.org/2000/svg"
   xmlns="http://www.w3.org/2000/svg"
   viewBox="0 0 74.559998 150.72"
   height="150.72"
   width="74.559998"
   xml:space="preserve"
   id="svg2"
   version="1.1"><metadata
     id="metadata8"><rdf:RDF><cc:Work
         rdf:about=""><dc:format>image/svg+xml</dc:format><dc:type
           rdf:resource="http://purl.org/dc/dcmitype/StillImage" /></cc:Work></rdf:RDF></metadata><defs
     id="defs6" /><g
     transform="matrix(1.3333333,0,0,-1.3333333,0,150.72)"
     id="g10"><g
       transform="scale(0.1)"
       id="g12"><path
         id="path14"
         style="fill:#231f20;fill-opacity:1;fill-rule:evenodd;stroke:none"
         d="m 206.402,316.801 c 0,35.195 0,70.402 0,105.597 -39.605,3.602 -79.039,7.364 -117.6051,12 22.3591,-56.043 60.1251,-96.679 117.6051,-117.597 z m 143.996,103.203 c 3.618,-31.59 2.168,-68.231 2.407,-103.203 56.609,22.59 96.062,62.336 117.593,120 -38.113,-7.481 -82.507,-8.692 -120,-16.797 z m -21.597,43.195 c 52.293,-1.301 96.582,-10.617 146.394,-14.394 15.364,126.781 -43.593,199.422 -129.597,232.797 15.425,-79.528 -11.914,-144.711 -16.797,-218.403 z M 84,448.805 c 49.516,4.082 93.898,13.3 146.398,14.394 -10.105,69.129 -29.168,136.524 -19.199,218.403 -1.597,0 -3.203,0 -4.797,0 C 127.914,645.629 55.1328,568.441 84,448.805 Z M 247.203,1130.4 c 20.793,0 41.598,0 62.399,0 11.16,-136.838 26.023,-269.974 33.601,-410.4 112.567,-43.434 200.488,-111.504 215.996,-251.996 0,-10.402 0,-20.801 0,-31.203 C 537.996,286.137 442.266,175.199 278.398,175.199 116.492,175.199 20.7656,280.133 0,431.996 c 0,12.805 0,25.606 0,38.399 17.6641,135.136 92.9531,212.648 213.598,244.804 9.433,140.168 22.679,276.524 33.605,415.201" /><path
         id="path16"
         style="fill:#231f20;fill-opacity:1;fill-rule:evenodd;stroke:none"
         d="M 319.199,0 C 292.805,0 266.402,0 240,0 215.348,32.9492 205.938,93.9297 208.801,146.402 246.785,130.602 315.684,138.16 350.398,144 350.449,85.5508 340.145,37.4609 319.199,0" /></g></g></svg>