<svg id="Layer_1" data-name="Layer 1" xmlns="http://www.w3.org/2000/svg" viewBox="0 0 120.75 118.3"><defs><style>.cls-1{fill:#231f20;}.cls-2{fill:#fff;}</style></defs><title>pierce</title><path class="cls-1" d="M79.43,120H99.55A110,110,0,0,0,0,20.46v20.1A90,90,0,0,1,79.43,120Z" transform="translate(0 -1.7)"/><polygon class="cls-2" points="35.46 0 21.25 107.81 120.75 71.33 35.46 0"/><polygon class="cls-1" points="44.5 20.05 36.03 53.9 62 12.34 44.5 20.05"/><polygon class="cls-1" points="89.81 73.5 63.69 83.28 96.31 63.72 89.81 73.5"/><polygon class="cls-1" points="47.82 84.69 14.75 100.6 33.9 69.53 47.82 84.69"/><path class="cls-1" d="M36,67.73l15,16.45a286.35,286.35,0,0,0,36.75-28.7,285.93,285.93,0,0,0,30.49-32.75l-15-16.45A237.59,237.59,0,0,0,36,67.73Z" transform="translate(0 -1.7)"/></svg>