<?xml version="1.0" encoding="UTF-8" standalone="no"?>
<svg
   xmlns:dc="http://purl.org/dc/elements/1.1/"
   xmlns:cc="http://creativecommons.org/ns#"
   xmlns:rdf="http://www.w3.org/1999/02/22-rdf-syntax-ns#"
   xmlns:svg="http://www.w3.org/2000/svg"
   xmlns="http://www.w3.org/2000/svg"
   viewBox="0 0 122.56 135.48"
   height="135.48"
   width="122.56"
   xml:space="preserve"
   id="svg2"
   version="1.1"><metadata
     id="metadata8"><rdf:RDF><cc:Work
         rdf:about=""><dc:format>image/svg+xml</dc:format><dc:type
           rdf:resource="http://purl.org/dc/dcmitype/StillImage" /></cc:Work></rdf:RDF></metadata><defs
     id="defs6" /><g
     transform="matrix(1.3333333,0,0,-1.3333333,0,135.48)"
     id="g10"><g
       transform="scale(0.1)"
       id="g12"><path
         id="path14"
         style="fill:#231f20;fill-opacity:1;fill-rule:evenodd;stroke:none"
         d="m 484.797,435.25 c 3.973,-24.055 40.641,-44.414 69.598,-40.801 28.449,3.543 43.703,31.688 62.402,40.801 -18.645,28.555 -42.879,51.523 -67.195,74.398 -33.118,-10.453 -71.211,-35.628 -64.805,-74.398 z m 350.398,580.8 c 0.801,0 1.602,0 2.403,0 24.543,-34.659 52.84,-65.558 81.601,-95.999 0,-0.801 0,-1.598 0,-2.399 -43.847,-26.554 -88.855,-51.945 -129.597,-81.601 -1.184,-7.574 4.324,-8.477 2.402,-16.801 -37.727,-31.883 -76.652,-62.551 -115.207,-93.602 -8.926,-0.925 -4.442,11.559 -12,12.004 -10.285,-9.621 -25.735,-16.574 -38.402,-26.402 -10.68,-8.285 -28.668,-19.84 -26.395,-33.598 5.344,-12.109 11.699,4.442 21.602,2.399 42.773,-46.828 82.929,-96.262 124.793,-144 1.808,-9.008 -9.168,-5.235 -9.598,-12.004 4.656,-8.938 13.594,-13.606 16.797,-23.992 -32.696,-20.832 -59.356,-46.203 -88.797,-69.602 -28.692,-22.812 -58.488,-55.125 -91.203,-69.598 -44.324,-19.628 -78.699,24.247 -107.996,21.59 -18.789,-1.699 -32.082,-18.828 -33.602,-33.593 -2.328,-22.696 23.859,-56.504 31.195,-69.598 27.661,-49.309 46.789,-89.18 72.004,-134.406 11.59,-20.789 30.325,-44.364 28.797,-74.3949 -2.527,-50.2226 -73.238,-90.2343 -124.793,-60.0039 -30.707,18.0039 -45.097,81.8906 -60,131.9958 -16.871,56.7 -25.269,110.45 -38.402,153.606 -13.395,44.011 -56.852,18.738 -81.598,57.597 -11.75,-13.378 -42.75,-30.058 -48.004,-7.199 -5.133,22.336 33.59,30.821 43.203,48 -17.918,33.281 -46.683,55.723 -69.597,84.004 26.801,25.996 60.199,45.395 86.394,71.996 C 206.121,553.391 188.762,485.082 158.398,447.25 134.668,417.672 101.059,405.043 71.9961,382.445 50.4922,415.348 20.5547,439.809 0,473.648 c 51.8047,63.395 153.5,76.899 208.801,136.801 -1.051,8.25 0.945,13.453 2.394,19.199 25.801,11.801 34.243,40.957 72.004,40.801 29.035,21.363 57.055,43.742 83.996,67.203 4.938,31.864 33.789,39.809 52.805,57.598 11.188,-0.785 18.926,1.875 26.395,4.801 5.351,9.656 -14.786,11.609 -16.793,21.601 10.457,17.539 25.031,30.961 47.996,36 10.742,0.336 6.894,-13.902 12.004,-19.199 31.062,17.731 53.523,44.07 83.992,62.399 13.64,-18.364 28.816,-35.188 43.203,-52.801 -42.207,-39.399 -88.809,-74.395 -134.395,-110.399 2.657,-4.543 3.059,-11.34 4.793,-16.8 44.282,22.921 75.434,58.968 115.207,86.398 -2.785,6.023 -9.57,8.039 -9.609,16.797 38.508,28.707 74.141,60.269 112.805,88.805 7.195,0 14.402,0 21.597,0 39.692,30.714 70.332,70.468 108,103.198" /></g></g></svg>