<?xml version="1.0" encoding="utf-8"?>
<!-- Generator: Adobe Illustrator 20.1.0, SVG Export Plug-In . SVG Version: 6.00 Build 0)  -->
<svg version="1.1" id="Layer_1" xmlns="http://www.w3.org/2000/svg" xmlns:xlink="http://www.w3.org/1999/xlink" x="0px" y="0px"
	 width="400px" height="400px" viewBox="0 0 400 400" style="enable-background:new 0 0 400 400;" xml:space="preserve">
<style type="text/css">
	.st0{display:none;fill:#C0C0C0;}
	.st1{fill:none;}
	.st2{fill:#FFFFFF;}
</style>
<polygon class="st0" points="157.5,110.7 175,73.5 154.2,42.2 161,41.2 181.9,72.4 164.4,109.7 "/>
<g>
	<path class="st1" d="M218.6,120l19.3-34.3l-0.9-1.5c-11.7-3.4-24.2-5.2-37-5.2c-3.6,0-7.2,0.2-10.7,0.4l3.6,6.3L173.6,120h-6.8
		l19.3-34.3l-3.2-5.7c-65.1,8.4-115.4,64.1-115.4,131.4C67.5,284.6,126.8,344,200,344s132.5-59.3,132.5-132.5
		c0-57.6-36.8-106.8-88.2-125L225.5,120H218.6z"/>
	<path d="M200,79c12.8,0,25.3,1.8,37,5.2l-17.7-31.6c-6.3-0.8-12.8-1.2-19.3-1.2c-8.6,0-17,0.7-25.2,2l14.5,25.9
		C192.8,79.1,196.4,79,200,79z"/>
	<g>
		<path class="st1" d="M218.6,120l5.5-9.6c-7.7-1.8-15.8-2.7-24.1-2.7c-7,0-13.8,0.5-20.4,1.8l-6,10.5h-6.8l4.9-8.6
			c-43.5,12.3-75.4,52.5-75.4,99.9c0,57.3,46.4,103.8,103.7,103.8s103.7-46.4,103.7-103.7c0-46.8-31-86.6-73.6-99.5l-4.6,8.1H218.6z
			"/>
		<path class="st2" d="M226.7,53.7L226.7,53.7l18,32.2l-0.4,0.8l-14.2,25.5c42.6,12.9,73.6,52.5,73.6,99.3
			c0,57.3-46.4,103.7-103.7,103.7S96.3,268.8,96.3,211.5c0-47.5,31.9-87.5,75.4-99.8L186.1,86l-3.2-5.8l-14.3-25.6l0,0
			C95.2,69.2,40,133.9,40,211.5c0,88.4,71.6,160,160,160s160-71.6,160-160C360,132.2,302.4,66.4,226.7,53.7z"/>
		<path class="st2" d="M189.3,79.5l3.6,6.5l-13.3,23.8c6.6-1.3,13.4-2,20.4-2c8.3,0,16.4,1,24.1,2.8L237.9,86l-0.9-1.6l-17.7-31.6
			l0,0c-6.3-0.8-12.8-1.2-19.3-1.2c-8.6,0-17,0.7-25.2,2l0,0.1L189.3,79.5z"/>
		<polygon class="st0" points="237,84.3 237.9,86 224.1,110.4 218.6,120 225.5,120 230.1,112 244.3,86.6 244.7,85.8 226.8,53.8 
			226.7,53.5 225.5,51 218.6,51 219.3,52.4 219.3,52.6 		"/>
		<polygon class="st0" points="182.9,80.2 186.1,86 171.7,111.4 166.8,120 173.6,120 179.6,109.5 192.9,85.8 189.3,79.4 174.8,53.5 
			174.8,53.2 173.6,51 166.8,51 168.6,54.4 168.6,54.5 		"/>
	</g>
	<path d="M226.8,53.7l18,32.1l-0.4,0.8c51.4,18.2,88.2,67.3,88.2,124.9c0,73.2-59.3,132.5-132.5,132.5S67.5,284.7,67.5,211.5
		c0-67.4,50.3-123,115.4-131.4l-14.3-25.5C95.3,69.2,40,133.9,40,211.5c0,88.4,71.6,160,160,160s160-71.6,160-160
		C360,132.3,302.4,66.5,226.8,53.7z"/>
</g>
<polygon points="160.6,143.1 192.7,85.8 161.6,28.5 205.8,28.5 237.9,85.8 205.8,143.1 "/>
<polygon class="st0" points="140.7,119.9 155.7,79.3 132.9,52.6 139.6,50.1 162.4,76.8 147.4,117.4 "/>
<polygon class="st0" points="130,146.5 146.4,81.9 98.4,35.5 125.7,27.8 173.8,74.1 157.4,138.8 "/>
<polygon class="st0" points="107,181.3 99.5,115 38.2,88.7 61,71.7 122.3,98.1 129.8,164.4 "/>
</svg>
