<?xml version="1.0" encoding="UTF-8" standalone="no"?>
<svg
   xmlns:dc="http://purl.org/dc/elements/1.1/"
   xmlns:cc="http://creativecommons.org/ns#"
   xmlns:rdf="http://www.w3.org/1999/02/22-rdf-syntax-ns#"
   xmlns:svg="http://www.w3.org/2000/svg"
   xmlns="http://www.w3.org/2000/svg"
   viewBox="0 0 165.44 79.040001"
   height="79.040001"
   width="165.44"
   xml:space="preserve"
   id="svg2"
   version="1.1"><metadata
     id="metadata8"><rdf:RDF><cc:Work
         rdf:about=""><dc:format>image/svg+xml</dc:format><dc:type
           rdf:resource="http://purl.org/dc/dcmitype/StillImage" /></cc:Work></rdf:RDF></metadata><defs
     id="defs6"><clipPath
       id="clipPath20"
       clipPathUnits="userSpaceOnUse"><path
         id="path18"
         d="M 0,592.797 V 0 h 1240.8 v 592.797 z" /></clipPath></defs><g
     transform="matrix(1.3333333,0,0,-1.3333333,0,79.04)"
     id="g10"><g
       transform="scale(0.1)"
       id="g12"><g
         id="g14"><g
           clip-path="url(#clipPath20)"
           id="g16"><path
             id="path22"
             style="fill:#231f20;fill-opacity:1;fill-rule:evenodd;stroke:none"
             d="m 429.602,592.797 c 0.793,0 1.593,0 2.394,0 C 555.238,490.441 681.738,391.34 806.395,290.402 934.68,389.32 1060.68,490.508 1185.6,592.797 c 1.6,0 3.2,0 4.8,0 14.76,-17.238 32.11,-31.887 50.4,-45.598 0,-1.601 0,-3.199 0,-4.801 C 1096.26,362.141 951.562,182.031 808.801,0 807.996,0 807.195,0 806.395,0 682.578,101.777 556.207,201.008 431.996,302.398 303.988,204.004 179.301,102.285 55.1953,0 53.5977,0 51.9961,0 50.3945,0 36.4648,19.668 11.293,28.0977 0,50.4023 143.52,230.867 286.93,411.469 429.602,592.797" /></g></g></g></g></svg>